<?xml version="1.0" standalone="no"?>
<!DOCTYPE svg PUBLIC "-//W3C//DTD SVG 20010904//EN"
 "http://www.w3.org/TR/2001/REC-SVG-20010904/DTD/svg10.dtd">
<svg version="1.0" xmlns="http://www.w3.org/2000/svg"
 width="2647.000000pt" height="588.000000pt" viewBox="0 0 2647.000000 588.000000"
 preserveAspectRatio="xMidYMid meet">

<g transform="translate(0.000000,588.000000) scale(0.100000,-0.100000)"
fill="#000000" stroke="none">
<path d="M3515 4873 c-291 -18 -530 -81 -790 -208 -341 -167 -597 -390 -809
-705 -103 -154 -219 -402 -261 -562 -11 -40 -23 -68 -31 -68 -7 0 -58 5 -113
11 -243 26 -546 -40 -772 -170 -228 -130 -427 -342 -539 -576 -93 -193 -130
-358 -130 -576 0 -225 38 -391 134 -584 72 -148 140 -240 260 -360 151 -150
319 -253 516 -319 204 -68 218 -69 895 -73 336 -3 629 -2 653 2 77 11 90 33
233 360 72 165 218 503 326 750 107 248 203 468 213 490 10 22 86 195 168 385
82 190 220 505 305 700 617 1413 580 1326 565 1357 -11 22 -29 32 -101 55
-126 40 -313 76 -461 88 -124 10 -152 10 -261 3z m-795 -1827 l0 -193 -122
-56 c-68 -31 -274 -126 -458 -212 -184 -86 -368 -170 -407 -188 -40 -18 -73
-35 -73 -38 0 -3 168 -74 373 -159 204 -84 443 -182 530 -218 l157 -65 0 -193
0 -193 -72 32 c-40 18 -394 175 -786 347 l-713 315 3 117 3 116 780 391 c429
214 781 390 783 390 1 1 2 -86 2 -193z"/>
<path d="M4727 4518 c-10 -7 -153 -323 -318 -703 -702 -1614 -943 -2166 -1135
-2608 -112 -258 -204 -477 -204 -487 0 -11 9 -24 20 -30 14 -8 416 -10 1358
-7 1234 3 1344 4 1427 21 357 70 594 194 835 436 189 188 301 368 380 610 56
171 74 286 74 480 -1 429 -152 792 -459 1095 -125 125 -245 210 -400 286 -232
113 -395 151 -669 155 l-188 3 -63 105 c-92 153 -197 285 -332 417 -112 109
-273 239 -298 239 -6 0 -19 -6 -28 -12z m491 -1677 l762 -381 0 -118 0 -119
-222 -98 c-123 -54 -284 -125 -358 -158 -137 -60 -180 -79 -465 -205 -88 -39
-242 -106 -342 -150 l-183 -81 0 193 0 193 423 173 c232 96 474 195 537 221
l115 48 -65 29 c-76 34 -138 63 -355 164 -88 41 -271 126 -407 189 l-248 114
0 192 0 193 23 -9 c12 -5 365 -180 785 -390z"/>
<path d="M8080 2465 l0 -1125 214 0 214 0 5 463 c6 512 11 561 69 677 57 111
135 154 283 154 125 1 189 -42 237 -161 23 -58 23 -59 26 -596 l3 -537 217 2
217 3 3 515 c3 561 -4 689 -43 797 -77 214 -258 323 -532 323 -112 0 -200 -18
-278 -56 -61 -30 -153 -108 -174 -148 -34 -63 -37 -35 -33 394 l4 420 -216 0
-216 0 0 -1125z"/>
<path d="M20140 2465 l0 -1125 215 0 215 0 0 1125 0 1125 -215 0 -215 0 0
-1125z"/>
<path d="M25793 3248 c3 -205 10 -372 17 -416 7 -40 10 -75 8 -78 -3 -2 -38
29 -79 69 -113 112 -225 157 -394 157 -168 0 -295 -51 -407 -162 -119 -119
-187 -291 -209 -527 -22 -236 14 -491 92 -651 32 -65 60 -103 118 -161 125
-125 235 -165 432 -157 94 4 126 10 179 32 84 34 150 83 197 146 21 27 44 48
51 47 8 -1 33 -47 56 -102 l42 -100 164 0 165 0 3 1123 2 1122 -221 0 -221 0
5 -342z m-187 -633 c144 -42 214 -201 214 -481 0 -207 -37 -332 -118 -406 -55
-49 -100 -63 -212 -63 -111 0 -152 16 -214 86 -75 82 -106 196 -106 389 0 251
65 406 195 466 60 28 164 32 241 9z"/>
<path d="M15415 2979 c-97 -8 -210 -30 -290 -55 -85 -28 -195 -75 -195 -85 0
-5 31 -72 69 -148 l70 -139 85 34 c235 95 434 107 536 33 56 -41 79 -96 83
-196 l2 -78 -180 -7 c-298 -11 -444 -38 -579 -104 -175 -87 -260 -249 -242
-466 20 -236 134 -380 347 -434 49 -13 94 -15 199 -12 205 8 302 48 430 180
33 34 63 58 67 54 4 -4 26 -53 48 -109 l41 -102 150 0 149 0 3 570 c2 488 0
581 -13 649 -51 252 -229 387 -546 416 -115 10 -107 10 -234 -1z m358 -1002
c-2 -118 -21 -178 -77 -244 -43 -51 -140 -93 -227 -100 -91 -7 -148 8 -194 48
-84 74 -68 246 32 328 69 57 173 80 358 77 l110 -1 -2 -108z"/>
<path d="M12694 2961 c-40 -11 -94 -31 -121 -45 -57 -28 -159 -118 -168 -147
-4 -10 -14 -19 -24 -19 -15 0 -24 20 -46 100 l-28 100 -169 0 -168 0 0 -805 0
-805 218 2 217 3 6 485 c6 523 9 551 63 658 30 59 90 115 142 133 22 7 73 14
114 14 121 0 184 -49 226 -176 16 -48 18 -109 22 -586 l3 -532 215 0 214 0 0
408 c0 550 15 680 93 783 60 80 203 126 305 99 60 -17 116 -71 144 -139 23
-56 23 -63 28 -602 l5 -545 215 0 215 0 3 580 c3 649 0 680 -63 812 -78 160
-243 243 -482 243 -180 0 -331 -56 -422 -156 -28 -30 -51 -60 -51 -65 0 -5
-11 -9 -24 -9 -18 0 -34 14 -61 49 -45 62 -137 124 -224 152 -97 31 -300 36
-397 10z"/>
<path d="M17404 2962 c-112 -29 -181 -67 -257 -144 -37 -37 -71 -68 -77 -68
-5 0 -19 33 -30 73 -12 39 -25 83 -29 97 l-8 25 -166 3 -167 2 2 -802 3 -803
211 -2 212 -3 5 463 c4 382 8 475 22 536 45 201 125 282 292 297 140 13 234
-44 279 -168 17 -49 19 -93 22 -591 l3 -537 217 2 217 3 0 590 c-1 523 -3 598
-18 658 -46 182 -141 286 -326 355 -91 34 -300 41 -407 14z"/>
<path d="M19090 2961 c-279 -59 -469 -240 -541 -516 -27 -103 -37 -374 -19
-508 43 -320 195 -508 477 -589 70 -21 100 -23 278 -23 224 1 273 9 403 71
l72 35 0 184 c0 102 -2 185 -5 185 -3 0 -23 -11 -44 -24 -107 -68 -245 -107
-385 -108 -84 -1 -110 3 -152 21 -58 25 -123 87 -153 146 -69 136 -79 422 -20
581 82 218 259 270 567 165 l113 -39 10 27 c6 14 33 86 61 159 27 73 48 138
45 145 -7 18 -176 75 -273 92 -112 20 -329 18 -434 -4z"/>
<path d="M21552 2969 c-245 -43 -435 -186 -531 -401 -95 -212 -104 -533 -22
-772 58 -167 190 -319 341 -393 120 -60 226 -83 377 -83 236 0 410 58 551 185
170 153 263 452 233 753 -36 354 -202 582 -498 682 -91 31 -108 33 -248 36
-82 2 -174 -1 -203 -7z m288 -351 c156 -49 233 -237 217 -528 -15 -248 -85
-373 -236 -416 -113 -33 -263 3 -327 79 -67 79 -104 219 -104 395 0 298 85
450 266 482 55 9 131 4 184 -12z"/>
<path d="M10020 2362 c0 -554 1 -593 20 -666 63 -249 247 -376 539 -376 131 0
225 19 317 64 64 32 152 107 176 150 19 34 37 16 58 -56 12 -40 26 -88 31
-105 l11 -33 164 0 164 0 0 805 0 805 -214 0 -214 0 -5 -462 c-4 -374 -8 -477
-21 -538 -29 -136 -87 -223 -176 -264 -36 -17 -64 -21 -145 -21 -88 0 -105 3
-142 24 -43 25 -79 70 -101 126 -26 68 -32 178 -32 648 l0 487 -215 0 -215 0
0 -588z"/>
<path d="M22870 2362 c0 -554 1 -593 20 -666 64 -250 246 -376 545 -376 212 0
373 65 469 190 16 22 36 40 43 40 7 0 22 -33 33 -72 12 -40 26 -87 31 -104
l10 -32 164 -1 165 0 0 804 0 805 -214 0 -214 0 -5 -462 c-4 -369 -8 -478 -20
-535 -46 -212 -154 -302 -347 -291 -127 7 -184 53 -227 180 -15 47 -17 112
-21 581 l-3 527 -215 0 -214 0 0 -588z"/>
</g>
</svg>
