<svg width="155" height="45" viewBox="0 0 155 45" fill="none" xmlns="http://www.w3.org/2000/svg">
<path d="M85.8048 9.09765V34H79.209V9.09765H85.8048ZM109.887 15.1213L97.9066 42.985H90.7387L95.2481 33.1924L87.5081 15.1213H94.8442L98.8152 25.8226L102.651 15.1213H109.887Z" fill="black"/>
<path d="M111.7 34.2692C110.533 34.2692 109.591 33.9551 108.873 33.327C108.178 32.6764 107.83 31.8575 107.83 30.8704C107.83 29.8833 108.178 29.0644 108.873 28.4138C109.591 27.7632 110.533 27.4379 111.7 27.4379C112.844 27.4379 113.764 27.7632 114.459 28.4138C115.177 29.0644 115.536 29.8833 115.536 30.8704C115.536 31.8351 115.177 32.6427 114.459 33.2933C113.764 33.9439 112.844 34.2692 111.7 34.2692ZM117.548 24.5438C117.548 22.592 117.896 20.887 118.591 19.4288C119.309 17.9705 120.274 16.8488 121.485 16.0636C122.719 15.2784 124.088 14.8858 125.591 14.8858C126.892 14.8858 128.014 15.1438 128.956 15.6598C129.898 16.1757 130.627 16.8712 131.143 17.7462V15.1213H137.739V34H131.143V31.3752C130.627 32.2501 129.887 32.9456 128.922 33.4616C127.98 33.9776 126.87 34.2356 125.591 34.2356C124.088 34.2356 122.719 33.843 121.485 33.0577C120.274 32.2725 119.309 31.1508 118.591 29.6926C117.896 28.2119 117.548 26.4956 117.548 24.5438ZM131.143 24.5438C131.143 23.3324 130.807 22.3789 130.134 21.6834C129.483 20.988 128.676 20.6402 127.711 20.6402C126.724 20.6402 125.905 20.988 125.254 21.6834C124.604 22.3565 124.278 23.3099 124.278 24.5438C124.278 25.7553 124.604 26.72 125.254 27.4379C125.905 28.1334 126.724 28.4811 127.711 28.4811C128.676 28.4811 129.483 28.1334 130.134 27.4379C130.807 26.7424 131.143 25.7777 131.143 24.5438ZM144.829 13.3714C143.663 13.3714 142.72 13.0573 142.002 12.4292C141.307 11.7786 140.959 10.9709 140.959 10.0062C140.959 9.01912 141.307 8.20026 142.002 7.54966C142.72 6.89906 143.663 6.57376 144.829 6.57376C145.973 6.57376 146.893 6.89906 147.589 7.54966C148.307 8.20026 148.666 9.01912 148.666 10.0062C148.666 10.9709 148.307 11.7786 147.589 12.4292C146.893 13.0573 145.973 13.3714 144.829 13.3714ZM148.093 15.1213V34H141.498V15.1213H148.093Z" fill="black"/>
<path d="M28.0312 10.2755L19.8538 34H11.4072L3.19615 10.2755H10.263L15.6473 27.4042L20.998 10.2755H28.0312ZM48.1237 24.3419C48.1237 24.8579 48.0901 25.3739 48.0228 25.8899H35.5379C35.6052 26.9219 35.8857 27.6959 36.3792 28.2119C36.8952 28.7054 37.5458 28.9522 38.331 28.9522C39.4303 28.9522 40.2155 28.4587 40.6867 27.4715H47.7199C47.4282 28.7727 46.8562 29.9393 46.0036 30.9713C45.1736 31.9809 44.1191 32.7773 42.8404 33.3606C41.5616 33.9439 40.1482 34.2356 38.6002 34.2356C36.7382 34.2356 35.078 33.843 33.6198 33.0577C32.184 32.2725 31.051 31.1508 30.2209 29.6926C29.4133 28.2343 29.0095 26.5181 29.0095 24.5438C29.0095 22.5696 29.4133 20.8646 30.2209 19.4288C31.0286 17.9705 32.1503 16.8488 33.5861 16.0636C35.0444 15.2784 36.7157 14.8858 38.6002 14.8858C40.4623 14.8858 42.1113 15.2671 43.5471 16.0299C44.9829 16.7927 46.1046 17.892 46.9122 19.3278C47.7199 20.7412 48.1237 22.4126 48.1237 24.3419ZM41.3933 22.693C41.3933 21.8853 41.1241 21.2572 40.5857 20.8085C40.0473 20.3374 39.3742 20.1018 38.5666 20.1018C37.7589 20.1018 37.0971 20.3261 36.5811 20.7748C36.0651 21.2011 35.7286 21.8405 35.5716 22.693H41.3933Z" fill="black"/>
<circle cx="55.1725" cy="8.65782" r="3.75254" fill="#0496FF"/>
<circle cx="69.4563" cy="8.65782" r="3.75254" fill="#D81159"/>
<path d="M61.9006 28.5743V34.1941H59.0402C54.2168 34.1941 51.8051 31.8048 51.8051 27.0263V20.8007H49.4831V15.3154H52.9942H56.2626H58.4345H61.867V20.8007H58.4345V27.1272C58.4345 27.6432 58.5467 28.0134 58.771 28.2377C59.0178 28.4621 59.4216 28.5743 59.9825 28.5743H61.9006Z" fill="#0496FF"/>
<path d="M76.0646 28.5743V34.1941H73.2042C68.3808 34.1941 65.9691 31.8048 65.9691 27.0263V20.8007H63.6471V15.3154H65.9691H68.0044L69.9412 15.3154L72.5985 15.3154H76.031V20.8007H72.5985V27.1272C72.5985 27.6432 72.7107 28.0134 72.935 28.2377C73.1818 28.4621 73.5856 28.5743 74.1465 28.5743H76.0646Z" fill="#0496FF"/>
</svg>
